<svg xmlns="http://www.w3.org/2000/svg" width="22.852" height="30" viewBox="0 0 22.852 30">
  <g id="Grupo_1089" data-name="Grupo 1089" transform="translate(-394.416 -372.272)">
    <path id="Caminho_116" data-name="Caminho 116" d="M407.263,394.236a.878.878,0,0,0,.958-.19l3.258-3.258h3.152a2.64,2.64,0,0,0,2.637-2.637v-5.274a2.64,2.64,0,0,0-2.637-2.636h-8.789a2.64,2.64,0,0,0-2.637,2.636v5.274a2.64,2.64,0,0,0,2.637,2.637h.879v2.636a.876.876,0,0,0,.542.812Zm.155-8.9a.878.878,0,0,1,1.242,0l.7.7,2.016-2.015a.879.879,0,0,1,1.243,1.243l-2.637,2.636a.878.878,0,0,1-1.243,0l-1.318-1.318a.878.878,0,0,1,0-1.243Z" fill="#dadb04"/>
    <path id="Caminho_117" data-name="Caminho 117" d="M407.6,372.272H397.053a2.64,2.64,0,0,0-2.637,2.637v24.668a2.69,2.69,0,0,0,2.637,2.7H407.6a2.69,2.69,0,0,0,2.636-2.7v-5.061l-.772.773a2.636,2.636,0,0,1-4.5-1.865v-.967a4.4,4.4,0,0,1-3.516-4.306v-5.274a4.4,4.4,0,0,1,4.4-4.394h4.394v-3.574a2.64,2.64,0,0,0-2.636-2.637Zm-4.4,25.547a.879.879,0,1,1,0,1.758h-1.758a.879.879,0,0,1,0-1.758Zm0-21.152h-1.758a.879.879,0,1,1,0-1.758H403.2a.879.879,0,1,1,0,1.758Z" fill=""/>
  </g>
</svg>
