<svg xmlns="http://www.w3.org/2000/svg" width="18.749" height="20" viewBox="0 0 18.749 20">
  <g id="Grupo_440" data-name="Grupo 440" transform="translate(-335.76 -375.067)">
    <path id="Caminho_118" data-name="Caminho 118" d="M354.179,379.5l-2.492-1.25a.624.624,0,1,0-.554,1.118l.949.474a.626.626,0,0,0-.058.217,2.01,2.01,0,0,0,1.236,1.76v7.615a.625.625,0,0,1-1.25,0v-5a3.321,3.321,0,0,0-2.5-3.062v-3.813a2.47,2.47,0,0,0-2.47-2.491h-7.5a2.521,2.521,0,0,0-2.53,2.491v13.989l-.9.452a.625.625,0,0,0-.345.559v1.875a.659.659,0,0,0,.654.634h13.75a.608.608,0,0,0,.6-.634v-1.875a.625.625,0,0,0-.345-.559l-.9-.452v-8.873a2.023,2.023,0,0,1,1.249,1.76v5a1.875,1.875,0,0,0,3.75,0v-9.375A.611.611,0,0,0,354.179,379.5Zm-14.67-.682a.626.626,0,0,1,.625-.625h6.25a.625.625,0,0,1,.625.625v5a.625.625,0,0,1-.625.625h-6.25a.626.626,0,0,1-.625-.625Z" fill="#fff"/>
  </g>
</svg>
