<svg xmlns="http://www.w3.org/2000/svg" width="168.079" height="68.299" viewBox="0 0 168.079 68.299">
  <g id="Grupo_397" data-name="Grupo 397" transform="translate(-194.541 -218.813)">
    <g id="Grupo_392" data-name="Grupo 392" transform="translate(194.541 218.813)">
      <path id="Caminho_22" data-name="Caminho 22" d="M224.156,220.381a26.733,26.733,0,0,1,2.907,5.508,34.442,34.442,0,0,1,2,8.982,31.31,31.31,0,0,1-.411,9.681,35.109,35.109,0,0,1-3.39,9.054,12.182,12.182,0,0,1-.7,1.112,23.155,23.155,0,0,0-1.521,2.509,13.593,13.593,0,0,0-1.481,3.537,9.726,9.726,0,0,0,1.1,6.149,11.56,11.56,0,0,0,3.63,4.56,11.906,11.906,0,0,0,6.079,2.23,12.056,12.056,0,0,0,8.121-1.775c3.324-2.211,4.41-5.627,5.058-7.669a20.189,20.189,0,0,0,.774-7.228,30.86,30.86,0,0,0-1.854-9.4,40.179,40.179,0,0,0-2.481-5.781,57.154,57.154,0,0,0-7.117-10.531,84.427,84.427,0,0,0-7.662-8.176C226.165,222.157,225.14,221.235,224.156,220.381Z" transform="translate(-198.499 -219.044)" fill="#dadb04"/>
      <path id="Caminho_23" data-name="Caminho 23" d="M211.2,218.813a16.565,16.565,0,0,1,.646,7.767c-.614,3.651-2.589,7.171-3.77,9.276a29.621,29.621,0,0,1-2.565,3.814c-.715.958-1.684,2.254-3.137,4.288-3.649,5.1-5.3,7.444-6.1,9.47a24.51,24.51,0,0,0-1.73,9.351A23.912,23.912,0,0,0,197,273.019a23.393,23.393,0,0,0,6.45,7.693,28.875,28.875,0,0,0,11.619,5.649,30.992,30.992,0,0,0,9.586.63,26.947,26.947,0,0,0,8.463-1.683,24.812,24.812,0,0,0,6.07-3.383,20.8,20.8,0,0,0,4.174-4.017,20.3,20.3,0,0,0,3.813-8.661c.1-.492.188-.99.26-1.48A18.156,18.156,0,0,1,232.7,279.892a19.251,19.251,0,0,1-9.635-.452,19.051,19.051,0,0,1-10.219-8,20.534,20.534,0,0,1-3-10.714,19.544,19.544,0,0,1,.647-6.247,17.94,17.94,0,0,1,2.165-4.722c.368-.634.793-1.364,1.291-2.272,2.047-3.726,3.077-5.594,3.564-7.38a18.768,18.768,0,0,0-.266-10.414,25.839,25.839,0,0,0-2.549-5.448A48.534,48.534,0,0,0,211.2,218.813Z" transform="translate(-194.541 -218.813)" fill="#fff"/>
    </g>
    <g id="Grupo_396" data-name="Grupo 396" transform="translate(258.371 223.269)">
      <g id="Grupo_393" data-name="Grupo 393" transform="translate(0 32.714)">
        <path id="Caminho_24" data-name="Caminho 24" d="M278.4,265.013H272.13v3.833h5.311v2.5H272.13v6.549h-2.736V262.5h9Z" transform="translate(-269.394 -262.417)" fill="#fff"/>
        <path id="Caminho_25" data-name="Caminho 25" d="M291.188,262.5v2.4H285.1v3.953h5.191v2.476H285.1v4.052h6.369v2.516h-9.124V262.5Z" transform="translate(-271.301 -262.417)" fill="#fff"/>
        <path id="Caminho_26" data-name="Caminho 26" d="M302.378,277.87l-3.054-5.411h-1.018v5.411H295.55V262.5h3.873c3.714,0,5.451,1.358,5.451,4.612v.8c0,2.276-.8,3.514-2.655,4.113l3.374,5.85Zm-2.955-7.946c2,0,2.556-.7,2.556-2.157v-.519c0-1.457-.379-2.216-2.516-2.216h-1.179v4.892Z" transform="translate(-273.246 -262.417)" fill="#fff"/>
        <path id="Caminho_27" data-name="Caminho 27" d="M319.119,277.873h-2.675l-4.513-9.743.24,5.83v3.913h-2.735V262.52h2.735l4.512,10.123-.3-6.489V262.52h2.736Z" transform="translate(-275.291 -262.42)" fill="#fff"/>
        <path id="Caminho_28" data-name="Caminho 28" d="M333.8,277.873h-2.835l-.779-2.715h-3.933l-.8,2.715h-2.835l4.253-15.353h2.736Zm-4.312-5.411-1.277-5.69-1.278,5.69Z" transform="translate(-277.232 -262.42)" fill="#fff"/>
        <path id="Caminho_29" data-name="Caminho 29" d="M347.242,277.873h-2.676l-4.512-9.743.24,5.83v3.913h-2.736V262.52h2.736l4.512,10.123-.3-6.489V262.52h2.736Z" transform="translate(-279.432 -262.42)" fill="#fff"/>
        <path id="Caminho_30" data-name="Caminho 30" d="M357.245,262.5c3.714,0,5.25,1.338,5.25,4.592v6.269c0,3.174-1.6,4.512-5.25,4.512h-5.052V262.5Zm0,12.877c2,0,2.5-.7,2.5-2.156v-5.99c0-1.457-.32-2.216-2.456-2.216h-2.356v10.362Z" transform="translate(-281.588 -262.417)" fill="#fff"/>
        <path id="Caminho_31" data-name="Caminho 31" d="M376,262.5v2.4h-6.089v3.953H375.1v2.476h-5.191v4.052h6.368v2.516h-9.124V262.5Z" transform="translate(-283.791 -262.417)" fill="#fff"/>
        <path id="Caminho_32" data-name="Caminho 32" d="M384.661,264.819c-1.517,0-2.136.479-2.136,1.937,0,1.937,1.537,1.777,3.873,2.137,1.777.279,3.474,1,3.474,4.073,0,3.553-1.537,5.052-5.231,5.052-3.834,0-5.051-1.857-5.051-4.333h2.775c.06,1.178.579,1.816,2.336,1.816,1.657,0,2.416-.7,2.416-2.435,0-1.817-2.156-1.817-3.793-2.036-1.737-.22-3.574-1.079-3.574-4.253,0-2.875,1.757-4.373,4.911-4.373,2.776,0,4.612,1.018,4.872,4.093h-2.775C386.678,265.2,386,264.819,384.661,264.819Z" transform="translate(-285.623 -262.403)" fill="#fff"/>
      </g>
      <g id="Grupo_394" data-name="Grupo 394" transform="translate(0 50.892)">
        <path id="Caminho_33" data-name="Caminho 33" d="M272.841,287.588c-.009-.814-.175-1.18-1.294-1.18-1.172,0-1.312.42-1.312,1.486v2.31c0,1.067.175,1.487,1.312,1.487s1.312-.254,1.312-1.321h.8c0,1.3-.14,2.108-2.109,2.108s-2.152-.8-2.152-2.284V287.9c0-1.478.35-2.274,2.152-2.274,1.75,0,2.091.657,2.109,1.96Z" transform="translate(-269.394 -284.001)" fill="#dadb04"/>
        <path id="Caminho_34" data-name="Caminho 34" d="M279.645,290.215c0,1.479-.333,2.275-2.187,2.275s-2.186-.8-2.186-2.275v-2.353c0-1.479.332-2.275,2.186-2.275s2.187.8,2.187,2.275Zm-.839-2.362c0-1.067-.088-1.5-1.348-1.5s-1.346.437-1.346,1.5v2.371c0,1.067.087,1.487,1.346,1.487s1.348-.42,1.348-1.487Z" transform="translate(-270.26 -283.995)" fill="#dadb04"/>
        <path id="Caminho_35" data-name="Caminho 35" d="M283.9,289.4l1.19-3.709h.953v6.754h-.831v-3.176l.123-1.846L284.1,291.21h-.4l-1.233-3.788.122,1.846v3.176h-.831V285.69h.953Z" transform="translate(-271.214 -284.01)" fill="#dadb04"/>
        <path id="Caminho_36" data-name="Caminho 36" d="M291.482,285.415v.734H288.91v2.03h2.327v.779H288.91v2.432H291.7v.779h-3.622v-6.754Zm-1.986-.438v-.043l.464-1.111h.823v.026l-.622,1.128Z" transform="translate(-272.146 -283.735)" fill="#dadb04"/>
        <path id="Caminho_37" data-name="Caminho 37" d="M295.889,289.9l1.462,2.546h-.98l-1.357-2.493h-.761v2.5h-.831v-6.762l1.811-.009c1.181,0,1.916.49,1.916,1.846V288C297.149,289.074,296.825,289.712,295.889,289.9Zm-1.636-3.42v2.677h.98c.744,0,1.085-.227,1.085-1.155v-.472c0-.927-.341-1.006-1.085-1.05Z" transform="translate(-272.933 -284.009)" fill="#dadb04"/>
        <path id="Caminho_38" data-name="Caminho 38" d="M302.294,287.588c-.009-.814-.175-1.18-1.294-1.18-1.173,0-1.312.42-1.312,1.486v2.31c0,1.067.175,1.487,1.312,1.487s1.312-.254,1.312-1.321h.8c0,1.3-.14,2.108-2.108,2.108s-2.152-.8-2.152-2.284V287.9c0-1.478.35-2.274,2.152-2.274,1.75,0,2.091.657,2.108,1.96Z" transform="translate(-273.732 -284.001)" fill="#dadb04"/>
        <path id="Caminho_39" data-name="Caminho 39" d="M305.011,292.457v-6.736h.848v6.736Z" transform="translate(-274.639 -284.015)" fill="#dadb04"/>
        <path id="Caminho_40" data-name="Caminho 40" d="M311.7,290.215c0,1.479-.333,2.275-2.187,2.275s-2.187-.8-2.187-2.275v-2.353c0-1.479.333-2.275,2.187-2.275s2.187.8,2.187,2.275Zm-.84-2.362c0-1.067-.088-1.5-1.347-1.5s-1.347.437-1.347,1.5v2.371c0,1.067.088,1.487,1.347,1.487s1.347-.42,1.347-1.487Z" transform="translate(-274.98 -283.995)" fill="#dadb04"/>
        <path id="Caminho_41" data-name="Caminho 41" d="M316.394,292.445V285.7h2.047c1.8,0,2.126.8,2.126,2.257v2.222c0,1.469-.333,2.283-2.187,2.266Zm1.986-.8c1.26,0,1.347-.393,1.347-1.461v-2.239c0-1.068-.088-1.461-1.347-1.461h-1.155v5.161Z" transform="translate(-276.316 -284.012)" fill="#dadb04"/>
        <path id="Caminho_42" data-name="Caminho 42" d="M325.95,285.69v.734h-2.573v2.03H325.7v.779h-2.327v2.432h2.792v.779h-3.622V285.69Z" transform="translate(-277.222 -284.01)" fill="#dadb04"/>
        <path id="Caminho_43" data-name="Caminho 43" d="M333.8,287.588c-.009-.814-.174-1.18-1.294-1.18-1.172,0-1.312.42-1.312,1.486v2.31c0,1.067.175,1.487,1.312,1.487s1.312-.254,1.312-1.321h.8c0,1.3-.141,2.108-2.109,2.108s-2.152-.8-2.152-2.284V287.9c0-1.478.35-2.274,2.152-2.274,1.75,0,2.091.657,2.109,1.96Z" transform="translate(-278.371 -284.001)" fill="#dadb04"/>
        <path id="Caminho_44" data-name="Caminho 44" d="M340.6,290.215c0,1.479-.332,2.275-2.187,2.275s-2.186-.8-2.186-2.275v-2.353c0-1.479.333-2.275,2.186-2.275s2.187.8,2.187,2.275Zm-.84-2.362c0-1.067-.087-1.5-1.347-1.5s-1.346.437-1.346,1.5v2.371c0,1.067.087,1.487,1.346,1.487s1.347-.42,1.347-1.487Z" transform="translate(-279.236 -283.995)" fill="#dadb04"/>
        <path id="Caminho_45" data-name="Caminho 45" d="M344.851,289.4l1.19-3.709h.953v6.754h-.831v-3.176l.123-1.846-1.234,3.788h-.4l-1.235-3.788.123,1.846v3.176h-.831V285.69h.953Z" transform="translate(-280.191 -284.01)" fill="#dadb04"/>
        <path id="Caminho_46" data-name="Caminho 46" d="M349.055,285.669h1.7a1.645,1.645,0,0,1,1.828,1.75,1.672,1.672,0,0,1-.481,1.269,1.612,1.612,0,0,1,1.128,1.7c0,1.435-.8,2.064-2.179,2.064h-1.995Zm.831.779v2h.779a.97.97,0,0,0,1.068-1.033.9.9,0,0,0-.98-.971Zm1.181,5.206c1.015,0,1.312-.49,1.312-1.26,0-.857-.5-1.146-1.286-1.146H349.9v2.406Z" transform="translate(-281.126 -284.007)" fill="#dadb04"/>
        <path id="Caminho_47" data-name="Caminho 47" d="M358.256,285.69h.84v4.531c0,1.479-.472,2.275-2.073,2.275s-2.092-.8-2.092-2.275V285.7h.84v4.531c0,1.068.211,1.487,1.252,1.487s1.233-.42,1.233-1.487Z" transform="translate(-281.991 -284.01)" fill="#dadb04"/>
        <path id="Caminho_48" data-name="Caminho 48" d="M364.073,287.35c-.043-.551-.236-.944-1.076-.944-.935,0-1.12.428-1.12,1.1,0,.936.814.928,1.662,1.015a1.629,1.629,0,0,1,1.584,1.873c0,1.451-.551,2.073-1.942,2.073h-.166c-1.382,0-2.012-.674-2.073-1.82h.9c.044.569.3,1.006,1.163,1.006h.167c.909,0,1.093-.429,1.093-1.216,0-1.1-.727-1.12-1.566-1.19a1.633,1.633,0,0,1-1.688-1.733c0-1.251.569-1.9,1.986-1.9,1.339,0,1.881.621,1.943,1.732Z" transform="translate(-282.876 -284)" fill="#dadb04"/>
        <path id="Caminho_49" data-name="Caminho 49" d="M368.617,286.511v5.94h-.831v-5.94h-1.4v-.77h3.63v.77Z" transform="translate(-283.678 -284.018)" fill="#dadb04"/>
        <path id="Caminho_50" data-name="Caminho 50" d="M371.443,292.162v-6.736h.848v6.736Zm.131-7.287v-.043l.463-1.111h.823v.026l-.621,1.128Z" transform="translate(-284.423 -283.72)" fill="#dadb04"/>
        <path id="Caminho_51" data-name="Caminho 51" d="M375.461,291.166l.674-2.974.674-2.5h.857l-1.827,6.762h-.761l-1.828-6.762h.857l.674,2.51Z" transform="translate(-284.688 -284.01)" fill="#dadb04"/>
        <path id="Caminho_52" data-name="Caminho 52" d="M382.64,285.69v.734h-2.572v2.03h2.326v.779h-2.326v2.432h2.791v.779h-3.622V285.69Z" transform="translate(-285.57 -284.01)" fill="#dadb04"/>
        <path id="Caminho_53" data-name="Caminho 53" d="M384.58,292.457v-6.736h.848v6.736Z" transform="translate(-286.357 -284.015)" fill="#dadb04"/>
        <path id="Caminho_54" data-name="Caminho 54" d="M389.876,287.35c-.043-.551-.236-.944-1.076-.944-.936,0-1.12.428-1.12,1.1,0,.936.814.928,1.662,1.015a1.629,1.629,0,0,1,1.584,1.873c0,1.451-.551,2.073-1.943,2.073h-.165c-1.382,0-2.012-.674-2.074-1.82h.9c.043.569.3,1.006,1.163,1.006h.166c.91,0,1.094-.429,1.094-1.216,0-1.1-.727-1.12-1.566-1.19a1.632,1.632,0,0,1-1.688-1.733c0-1.251.568-1.9,1.985-1.9,1.339,0,1.881.621,1.943,1.732Z" transform="translate(-286.676 -284)" fill="#dadb04"/>
      </g>
      <g id="Grupo_395" data-name="Grupo 395" transform="translate(0)">
        <path id="Caminho_55" data-name="Caminho 55" d="M276.836,224.445c7.135,0,10.472,2.569,10.472,8.822v2.724c0,6.1-3.452,8.937-10.472,8.937H274.8v9.053h-5.409V224.445Zm0,15.382c3.836,0,5.1-1.3,5.1-4.105v-2.186c0-2.8-.92-4.258-5.024-4.258h-2.148v10.549Z" transform="translate(-269.394 -224.099)" fill="#fff"/>
        <path id="Caminho_56" data-name="Caminho 56" d="M312.429,224.445v4.6h-11.7v7.6H310.7V241.4h-9.973v7.786h12.236v4.833h-17.53V224.445Z" transform="translate(-273.229 -224.099)" fill="#fff"/>
        <path id="Caminho_57" data-name="Caminho 57" d="M335.507,229.3h-6.1V254h-5.255V229.3h-6.137v-4.718h17.491Z" transform="translate(-276.554 -224.119)" fill="#fff"/>
        <path id="Caminho_58" data-name="Caminho 58" d="M355.153,253.98l-5.869-10.4h-1.956v10.4h-5.294V224.445h7.442c7.135,0,10.472,2.608,10.472,8.86v1.535c0,4.373-1.534,6.75-5.1,7.9l6.482,11.239Zm-5.678-15.266c3.836,0,4.91-1.342,4.91-4.143v-1c0-2.8-.729-4.258-4.833-4.258h-2.263v9.4Z" transform="translate(-280.092 -224.099)" fill="#fff"/>
        <path id="Caminho_59" data-name="Caminho 59" d="M368.257,245.367V232.861c0-6.252,2.724-8.822,9.858-8.822s10.089,2.57,10.089,8.822v12.505c0,6.1-3.069,8.822-10.089,8.822S368.257,251.465,368.257,245.367Zm14.652-.269V233.13c0-2.684-.691-4.411-4.795-4.411-3.836,0-4.565,1.727-4.565,4.411V245.1c0,2.8.729,4.411,4.565,4.411S382.909,247.9,382.909,245.1Z" transform="translate(-283.953 -224.039)" fill="#fff"/>
      </g>
    </g>
  </g>
</svg>
