<svg xmlns="http://www.w3.org/2000/svg" width="82.69" height="80" viewBox="0 0 82.69 80">
  <g id="Grupo_1093" data-name="Grupo 1093" transform="translate(-545.926 -108.757)">
    <g id="Grupo_403" data-name="Grupo 403" transform="translate(545.926 108.757)">
      <g id="Grupo_399" data-name="Grupo 399" transform="translate(3.913 55.21)">
        <g id="Grupo_398" data-name="Grupo 398">
          <path id="Caminho_60" data-name="Caminho 60" d="M563.472,286.612a3.4,3.4,0,0,0-.356-2.239,2.564,2.564,0,1,0-4.456,2.337,3.406,3.406,0,0,0,1.64,1.565c.091.039.181.073.273.1a2.244,2.244,0,0,0,1.735-.129A2.3,2.3,0,0,0,563.472,286.612Zm-1.846.057a3.487,3.487,0,0,0-1.054-.9,2.619,2.619,0,0,1-1.062-2.862,7.851,7.851,0,0,0,.573,1.407,3.663,3.663,0,0,0,1.161,1.019,2.615,2.615,0,0,1,1.024,2.834A7.073,7.073,0,0,0,561.626,286.669Z" transform="translate(-558.247 -282.594)" fill="#5f3813"/>
        </g>
      </g>
      <g id="Grupo_401" data-name="Grupo 401" transform="translate(73.229 55.213)">
        <g id="Grupo_400" data-name="Grupo 400">
          <path id="Caminho_61" data-name="Caminho 61" d="M779.711,288.287a3.4,3.4,0,0,0,1.653-1.55,2.564,2.564,0,1,0-4.435-2.376,3.412,3.412,0,0,0-.375,2.235c.02.1.043.191.07.283a2.244,2.244,0,0,0,1.08,1.363A2.3,2.3,0,0,0,779.711,288.287Zm-1.084-1.495a3.475,3.475,0,0,0,.151-1.376,2.62,2.62,0,0,1,1.772-2.485,7.912,7.912,0,0,0-.843,1.264,3.666,3.666,0,0,0-.192,1.534,2.614,2.614,0,0,1-1.771,2.438A7.1,7.1,0,0,0,778.627,286.793Z" transform="translate(-776.499 -282.604)" fill="#5f3813"/>
        </g>
      </g>
      <path id="Caminho_62" data-name="Caminho 62" d="M613.508,174.974a17.358,17.358,0,0,1,11.934-2.909h0l.066.009a18.02,18.02,0,0,1,1.985.36c3.157.667,9.344,2.372,14.2,6.159a25.471,25.471,0,0,0,1.059-7.714c-.255-15.285-14.038-27.422-30.774-27.11s-30.1,12.957-29.847,28.241,14.036,27.423,30.773,27.111a32,32,0,0,0,19.529-6.965c-1.144-1.026-1.1-2.935-5.335-4.1a25.508,25.508,0,0,1-14.29,4.718c-12.61-.106-22.708-9.289-23.83-18.478l3.6,1.777A20.656,20.656,0,0,0,613.508,174.974Zm-.8-23.317c12.206.1,22.447,8.368,23.524,17.107l-3.067-1.525a20.328,20.328,0,0,0-20.465,1.183,17.231,17.231,0,0,1-17.2.876l-4.68-2.268C592.017,158.953,601.136,151.565,612.705,151.657Z" transform="translate(-570.632 -132.645)" fill="#fff"/>
      <path id="Caminho_63" data-name="Caminho 63" d="M641.936,205.269s4.407,1.144,7.951-1.221c0,0,8.274-5.56,13.155-3.713,0,0-7.352-3.438-13.755,1.738A17.585,17.585,0,0,1,641.936,205.269Z" transform="translate(-611.444 -170.487)" fill="#fff" fill-rule="evenodd"/>
      <path id="Caminho_64" data-name="Caminho 64" d="M653,246.33s4.956,1.287,8.944-1.373c0,0,9.306-6.254,14.8-4.177,0,0-8.269-3.866-15.473,1.955A19.785,19.785,0,0,1,653,246.33Z" transform="translate(-618.997 -197.991)" fill="#fff" fill-rule="evenodd"/>
      <g id="Grupo_402" data-name="Grupo 402">
        <path id="Caminho_65" data-name="Caminho 65" d="M547.218,249.116a1.221,1.221,0,0,1,.068-.331,2.567,2.567,0,0,1,.145-.315.217.217,0,0,0,.034-.129c-.017-.081-.141-.11-.375-.082l-.026-.137q.347-.046,1.2-.216l.026.138a2.793,2.793,0,0,0-.429.212,1.041,1.041,0,0,0-.245.233,1.309,1.309,0,0,0-.226.435,1,1,0,0,0-.023.463.882.882,0,0,0,.309.535,1.3,1.3,0,0,0,.653.264,2.758,2.758,0,0,0,.923-.045,2.484,2.484,0,0,0,.867-.327,1.329,1.329,0,0,0,.491-.517.965.965,0,0,0,.085-.615,1.1,1.1,0,0,0-.191-.441,1.066,1.066,0,0,0-.366-.323.983.983,0,0,0-.339-.112,2.925,2.925,0,0,0-.5-.005l-.026-.138q.9-.18,1.253-.274l.026.137c-.227.066-.333.138-.318.218a.214.214,0,0,0,.078.108,1.906,1.906,0,0,1,.359.407,1.514,1.514,0,0,1,.206.552,2.343,2.343,0,0,1-.023,1.045,1.636,1.636,0,0,1-.486.8,2.03,2.03,0,0,1-1.925.375,1.737,1.737,0,0,1-.783-.556,2.08,2.08,0,0,1-.415-.933A1.637,1.637,0,0,1,547.218,249.116Z" transform="translate(-546.704 -203.361)" fill="#5f3813"/>
        <path id="Caminho_66" data-name="Caminho 66" d="M549.57,234.666l.116-.008c0,.191.01.457.031.8q.039.651.074.958l-.116.008a.759.759,0,0,0-.075-.295.171.171,0,0,0-.169-.086.648.648,0,0,0-.261.1l-.643.345.077,1.276.161.061a1.514,1.514,0,0,0,.609.133.327.327,0,0,0,.282-.151.8.8,0,0,0,.08-.4l.116-.007q0,.348.025.7a4.836,4.836,0,0,0,.046.491l-.117.008a.462.462,0,0,0-.19-.262,2.115,2.115,0,0,0-.466-.232l-2.877-1.106c0-.064,0-.11,0-.139s-.007-.081-.015-.139l2.966-1.641Q549.575,234.875,549.57,234.666Zm-2.393,2.543,1.308.506-.07-1.17Z" transform="translate(-546.151 -194.672)" fill="#5f3813"/>
        <path id="Caminho_67" data-name="Caminho 67" d="M546.728,224.385a3.093,3.093,0,0,0,.362-.005l-.005.14a1.625,1.625,0,0,0-.55.165.728.728,0,0,0-.3.3,1.014,1.014,0,0,0-.1.443l-.007.226a.81.81,0,0,0,.019.237.185.185,0,0,0,.1.117.654.654,0,0,0,.243.043l1.187.043.01-.286a.5.5,0,0,0-.175-.433,1.052,1.052,0,0,0-.432-.2l0-.139c.151.019.3.031.451.037l.232.005c.174.006.4,0,.689-.011l-.005.14a.876.876,0,0,0-.457.176.546.546,0,0,0-.191.435l-.01.285,1.07.039a.73.73,0,0,0,.33-.046.318.318,0,0,0,.159-.188,1.474,1.474,0,0,0,.066-.4l.116,0q-.03.375-.053,1.075-.022.651-.016.963l-.116,0a1.023,1.023,0,0,0-.035-.3.215.215,0,0,0-.132-.132,1.1,1.1,0,0,0-.316-.045l-2.3-.084a1.105,1.105,0,0,0-.319.022.216.216,0,0,0-.141.122.932.932,0,0,0-.055.3l-.117,0q.039-.633.081-1.886.029-.853.024-1.21A6.988,6.988,0,0,0,546.728,224.385Z" transform="translate(-545.926 -187.616)" fill="#5f3813"/>
        <path id="Caminho_68" data-name="Caminho 68" d="M550.356,213.093q-.072.39-.2,1.317-.173,1.242-.243,1.872l-.115-.018a.935.935,0,0,0-.005-.3.212.212,0,0,0-.117-.145,1.069,1.069,0,0,0-.31-.081l-2.279-.337a1.059,1.059,0,0,0-.319-.013.207.207,0,0,0-.152.1.936.936,0,0,0-.086.288l-.116-.017q.106-.625.277-1.866.118-.846.151-1.2a6.638,6.638,0,0,0,.685.144,2.689,2.689,0,0,0,.36.035l-.02.138a1.65,1.65,0,0,0-.564.1.719.719,0,0,0-.331.26,1.014,1.014,0,0,0-.151.429l-.031.223a.763.763,0,0,0-.005.238.187.187,0,0,0,.089.127.647.647,0,0,0,.238.07l1.175.174.039-.282a.5.5,0,0,0-.129-.451,1.069,1.069,0,0,0-.408-.252l.02-.138c.148.036.3.065.444.087l.232.031q.258.038.685.065l-.02.138a.869.869,0,0,0-.473.124.541.541,0,0,0-.235.411l-.039.282,1.2.177a.652.652,0,0,0,.247,0,.184.184,0,0,0,.12-.1.812.812,0,0,0,.06-.23l.035-.259a1.091,1.091,0,0,0-.032-.5.818.818,0,0,0-.28-.38,1.878,1.878,0,0,0-.578-.285l.018-.138a3.92,3.92,0,0,0,.414.079Q549.934,213.073,550.356,213.093Z" transform="translate(-546.258 -179.685)" fill="#5f3813"/>
        <path id="Caminho_69" data-name="Caminho 69" d="M549.87,199.225c.194.053.362.091.5.115l-.034.135a3.079,3.079,0,0,0-.722.016.8.8,0,0,0-.427.2.89.89,0,0,0-.226.432l-.048.185,2.637.715a.96.96,0,0,0,.354.046.266.266,0,0,0,.193-.126,1.452,1.452,0,0,0,.146-.369l.113.03q-.1.315-.286,1.057t-.246,1.034l-.113-.031a1.442,1.442,0,0,0,.048-.4.279.279,0,0,0-.107-.207.964.964,0,0,0-.33-.138l-2.637-.716-.047.185a.922.922,0,0,0-.009.49.822.822,0,0,0,.278.39,2.961,2.961,0,0,0,.62.378l-.034.135q-.174-.064-.493-.152a7.739,7.739,0,0,0-.775-.163q.146-.508.457-1.727.316-1.242.432-1.768C549.413,199.085,549.664,199.168,549.87,199.225Z" transform="translate(-547.497 -170.322)" fill="#5f3813"/>
        <path id="Caminho_70" data-name="Caminho 70" d="M556.85,191.313l.11.041q-.113.261-.289.744c-.147.406-.252.708-.311.9l-.11-.042a.741.741,0,0,0,.048-.3.176.176,0,0,0-.119-.151.677.677,0,0,0-.278-.021l-.723.043-.436,1.2.122.124a1.58,1.58,0,0,0,.5.379.316.316,0,0,0,.317-.02.762.762,0,0,0,.232-.332l.109.042q-.133.32-.254.648c-.073.2-.124.359-.152.469l-.109-.043a.475.475,0,0,0-.071-.319,2.17,2.17,0,0,0-.332-.408l-2.187-2.224c.025-.058.043-.1.053-.129s.025-.076.041-.133l3.358-.245C556.638,191.516,556.8,191.44,556.85,191.313Zm-3.192,1.308.992,1.014.4-1.1Z" transform="translate(-550.699 -165.094)" fill="#5f3813"/>
        <path id="Caminho_71" data-name="Caminho 71" d="M560.536,178.749a1.118,1.118,0,0,1-.127.444.921.921,0,0,1-.351.417.572.572,0,0,1-.416.057l-.686-.165a1,1,0,0,0-.357-.047.378.378,0,0,0-.225.095.826.826,0,0,0-.167.239l-.088.18.89.469a1.052,1.052,0,0,0,.3.119.207.207,0,0,0,.177-.048.947.947,0,0,0,.171-.244l.1.055c-.114.2-.266.5-.452.876q-.255.514-.361.769l-.1-.054a.992.992,0,0,0,.09-.287.222.222,0,0,0-.065-.176,1.112,1.112,0,0,0-.269-.18l-2.051-1.081a1.087,1.087,0,0,0-.3-.121.2.2,0,0,0-.176.05.992.992,0,0,0-.17.244l-.1-.055q.137-.239.374-.717.052-.1.3-.624l.118-.245a2.407,2.407,0,0,1,.749-.979.708.708,0,0,1,.759-.052.819.819,0,0,1,.326.316,1.089,1.089,0,0,1,.118.56,2.5,2.5,0,0,1-.189.834c.038-.062.071-.111.1-.15a1.838,1.838,0,0,1,.471-.527.646.646,0,0,1,.539-.089l.519.13a.567.567,0,0,0,.253.02.192.192,0,0,0,.127-.107.4.4,0,0,0,0-.293l.107-.04A1.015,1.015,0,0,1,560.536,178.749Zm-3.937.29a.241.241,0,0,0,.091.149,1.468,1.468,0,0,0,.267.169l1.058.557.115-.233a.916.916,0,0,0,.117-.481.572.572,0,0,0-.157-.349,1.414,1.414,0,0,0-.368-.266.994.994,0,0,0-.637-.145.658.658,0,0,0-.435.4A.4.4,0,0,0,556.6,179.04Z" transform="translate(-552.662 -155.736)" fill="#5f3813"/>
        <path id="Caminho_72" data-name="Caminho 72" d="M562.862,169.605a.22.22,0,0,0,.05.179,1.085,1.085,0,0,0,.253.2l1.952,1.263a1.086,1.086,0,0,0,.287.145.208.208,0,0,0,.18-.032,1,1,0,0,0,.192-.227l.1.063q-.176.258-.479.757c-.221.363-.377.633-.471.808l-.1-.064a.958.958,0,0,0,.114-.276.218.218,0,0,0-.05-.182,1.1,1.1,0,0,0-.252-.2l-1.952-1.264a1.083,1.083,0,0,0-.287-.145.207.207,0,0,0-.18.032.97.97,0,0,0-.191.227l-.1-.064c.112-.161.279-.425.5-.789q.3-.5.451-.775l.1.064A.969.969,0,0,0,562.862,169.605Z" transform="translate(-556.846 -150.047)" fill="#5f3813"/>
        <path id="Caminho_73" data-name="Caminho 73" d="M572.7,163.6l.093.072q-.18.219-.478.63-.379.522-.545.78l-.093-.072a.741.741,0,0,0,.127-.276.181.181,0,0,0-.074-.178.683.683,0,0,0-.26-.1l-.706-.165-.742,1.024.083.154a1.638,1.638,0,0,0,.38.508.322.322,0,0,0,.311.072.761.761,0,0,0,.313-.252l.093.072q-.216.268-.42.549c-.125.173-.216.309-.273.406l-.092-.072a.493.493,0,0,0,.019-.326,2.185,2.185,0,0,0-.21-.488l-1.5-2.766c.04-.049.068-.084.085-.108s.045-.066.076-.116l3.29.732C572.436,163.737,572.61,163.711,572.7,163.6Zm-3.42.339.68,1.26.68-.938Z" transform="translate(-561.483 -145.738)" fill="#5f3813"/>
        <path id="Caminho_74" data-name="Caminho 74" d="M580.827,152.724a.966.966,0,0,1,.509-.015.942.942,0,0,1,.449.251.984.984,0,0,1,.262.451,1.058,1.058,0,0,1-.246.99.977.977,0,0,1-.439.278.947.947,0,0,1-.952-.236,1,1,0,0,1-.264-.45,1.042,1.042,0,0,1-.009-.524.991.991,0,0,1,.249-.466A.979.979,0,0,1,580.827,152.724Z" transform="translate(-569.252 -138.731)" fill="#5f3813"/>
        <path id="Caminho_75" data-name="Caminho 75" d="M588.3,140.58a.869.869,0,0,0,.253.239.254.254,0,0,0,.227,0,1.691,1.691,0,0,0,.339-.233l.081.1q-.386.3-.843.688c-.219.184-.456.393-.714.625l-.074-.093a.93.93,0,0,0,.194-.224.227.227,0,0,0,.007-.187,1.174,1.174,0,0,0-.175-.276l-1.825-2.308a1.127,1.127,0,0,0-.226-.232.207.207,0,0,0-.181-.029.88.88,0,0,0-.25.149l-.073-.093c.161-.121.4-.312.7-.571q.084-.071.508-.439l.2-.175a2.457,2.457,0,0,1,.79-.473,1.134,1.134,0,0,1,.679-.037,1.015,1.015,0,0,1,.523.363,1.254,1.254,0,0,1,.141,1.352,2.4,2.4,0,0,1-.684.838l-.244.205Zm-1.989-2.734a.235.235,0,0,0,.011.186,1.317,1.317,0,0,0,.175.268l1.088,1.376.2-.166a.741.741,0,0,0,.323-.675,1.667,1.667,0,0,0-.378-.773,1.6,1.6,0,0,0-.657-.555.6.6,0,0,0-.6.154A.508.508,0,0,0,586.311,137.845Z" transform="translate(-572.617 -128.013)" fill="#5f3813"/>
        <path id="Caminho_76" data-name="Caminho 76" d="M602.393,135.215l.066.1q-.238.148-.649.438-.521.367-.758.557l-.066-.1a.728.728,0,0,0,.206-.218.18.18,0,0,0-.016-.194.666.666,0,0,0-.215-.182l-.616-.392-1.022.722.031.174a1.694,1.694,0,0,0,.2.608.326.326,0,0,0,.272.171.733.733,0,0,0,.374-.135l.065.1q-.288.182-.567.38-.26.183-.386.293l-.065-.1a.468.468,0,0,0,.119-.3,2.188,2.188,0,0,0-.044-.531l-.556-3.117c.053-.033.091-.057.115-.074s.062-.047.108-.084l2.886,1.787Q602.222,135.326,602.393,135.215Zm-3.342-.817.25,1.418.936-.662Z" transform="translate(-581.986 -125.524)" fill="#5f3813"/>
        <path id="Caminho_77" data-name="Caminho 77" d="M607.779,125.374a1.772,1.772,0,0,1,.393-.043.483.483,0,0,0,.214-.027.093.093,0,0,0,.04-.1.9.9,0,0,0-.054-.2l.118-.068c.1.219.285.587.566,1.1l-.117.068a1.439,1.439,0,0,0-.7-.567.917.917,0,0,0-.779.1.951.951,0,0,0-.271.225.574.574,0,0,0-.123.263.4.4,0,0,0,.044.255.481.481,0,0,0,.226.211,1,1,0,0,0,.339.086q.192.019.536.027l.167,0a5.982,5.982,0,0,1,.683.033,1.485,1.485,0,0,1,.508.152.919.919,0,0,1,.471.949,1.176,1.176,0,0,1-.287.563,2.34,2.34,0,0,1-.6.482,1.694,1.694,0,0,1-.454.191,2.679,2.679,0,0,1-.451.064.568.568,0,0,0-.214.04.094.094,0,0,0-.041.1.7.7,0,0,0,.054.2l-.118.068q-.137-.3-.673-1.287l.117-.069a1.675,1.675,0,0,0,.774.7,1,1,0,0,0,.9-.106.888.888,0,0,0,.252-.212.561.561,0,0,0,.127-.281.509.509,0,0,0-.067-.319.5.5,0,0,0-.22-.216.974.974,0,0,0-.343-.09c-.135-.014-.317-.021-.548-.022a6.088,6.088,0,0,1-.716-.038,1.585,1.585,0,0,1-.54-.16.862.862,0,0,1-.37-.362.831.831,0,0,1-.1-.556,1.115,1.115,0,0,1,.266-.531,2.137,2.137,0,0,1,.555-.448A1.563,1.563,0,0,1,607.779,125.374Z" transform="translate(-587.27 -119.8)" fill="#5f3813"/>
        <path id="Caminho_78" data-name="Caminho 78" d="M618.511,119.921q.123.283.229.475l-.123.057a3.242,3.242,0,0,0-.466-.568.8.8,0,0,0-.419-.218.844.844,0,0,0-.467.09l-.168.078,1.119,2.566a1,1,0,0,0,.186.314.26.26,0,0,0,.216.075,1.365,1.365,0,0,0,.371-.114l.047.109q-.3.12-.977.435t-.933.453l-.048-.11a1.392,1.392,0,0,0,.329-.21.285.285,0,0,0,.089-.216,1.081,1.081,0,0,0-.1-.352l-1.119-2.567-.168.079a.763.763,0,0,0-.5.769,3.233,3.233,0,0,0,.106.736l-.124.057c-.039-.12-.1-.284-.195-.491q-.148-.339-.363-.725.474-.2,1.589-.718,1.134-.527,1.6-.764C618.329,119.468,618.424,119.721,618.511,119.921Z" transform="translate(-593.086 -115.855)" fill="#5f3813"/>
        <path id="Caminho_79" data-name="Caminho 79" d="M630.944,118.69q-.367.112-1.225.418-1.15.41-1.723.633l-.039-.114a.89.89,0,0,0,.258-.142.218.218,0,0,0,.071-.174,1.178,1.178,0,0,0-.072-.321l-.752-2.247a1.125,1.125,0,0,0-.136-.3.209.209,0,0,0-.159-.092.9.9,0,0,0-.287.053l-.038-.114q.586-.19,1.735-.6.781-.28,1.1-.413c.059.263.124.494.191.7a2.885,2.885,0,0,0,.134.346l-.128.045a1.736,1.736,0,0,0-.346-.47.709.709,0,0,0-.376-.186.926.926,0,0,0-.438.058l-.207.074a.727.727,0,0,0-.208.1.185.185,0,0,0-.068.14.7.7,0,0,0,.049.249l.387,1.159.261-.094a.485.485,0,0,0,.33-.323,1.135,1.135,0,0,0,.029-.49l.129-.045c.036.152.079.3.129.447l.079.226q.084.255.256.659l-.127.045a.917.917,0,0,0-.323-.378.51.51,0,0,0-.461-.027l-.261.093.4,1.181a.7.7,0,0,0,.111.226.179.179,0,0,0,.139.067.713.713,0,0,0,.225-.051l.239-.085a1.019,1.019,0,0,0,.416-.258.827.827,0,0,0,.2-.431,2.029,2.029,0,0,0-.019-.662l.128-.045a4.162,4.162,0,0,0,.121.415Q630.769,118.293,630.944,118.69Z" transform="translate(-601.143 -113.208)" fill="#5f3813"/>
        <path id="Caminho_80" data-name="Caminho 80" d="M639.683,113.325a.217.217,0,0,0-.084.165,1.187,1.187,0,0,0,.047.329l.583,2.372a.879.879,0,0,0,.1.261.185.185,0,0,0,.135.089.679.679,0,0,0,.229-.03l.223-.058a.876.876,0,0,0,.567-.443,1.714,1.714,0,0,0,.128-.985l.131-.034c.02.128.053.289.1.482q.091.367.243.817-.376.081-1.256.311-1.178.309-1.768.481l-.029-.117a.9.9,0,0,0,.268-.119.221.221,0,0,0,.086-.167,1.2,1.2,0,0,0-.047-.326l-.566-2.3a1.153,1.153,0,0,0-.11-.311.214.214,0,0,0-.152-.1.909.909,0,0,0-.29.028l-.028-.116q.3-.061.909-.22.534-.139.825-.234l.028.116A.9.9,0,0,0,639.683,113.325Z" transform="translate(-608.887 -111.713)" fill="#5f3813"/>
        <path id="Caminho_81" data-name="Caminho 81" d="M654.155,113.859l.019.118q-.275.029-.767.113-.622.106-.914.174l-.02-.118a.694.694,0,0,0,.276-.108.178.178,0,0,0,.066-.182.713.713,0,0,0-.12-.259l-.4-.625-1.221.209-.043.171a1.679,1.679,0,0,0-.068.639.341.341,0,0,0,.175.274.732.732,0,0,0,.4.041l.019.118c-.223.027-.447.059-.671.1a4.763,4.763,0,0,0-.468.1l-.019-.118a.462.462,0,0,0,.233-.223,2.237,2.237,0,0,0,.176-.5l.773-3.067c.061-.007.106-.012.135-.017s.076-.016.133-.029l1.883,2.878Q653.955,113.884,654.155,113.859Zm-2.694-2.2-.355,1.395,1.12-.191Z" transform="translate(-617.216 -110.058)" fill="#5f3813"/>
        <path id="Caminho_82" data-name="Caminho 82" d="M665.468,112.712a1.026,1.026,0,0,1-.434.115.872.872,0,0,1-.528-.1.6.6,0,0,1-.259-.34l-.215-.694a1.075,1.075,0,0,0-.142-.34.4.4,0,0,0-.195-.152.779.779,0,0,0-.284-.024l-.2.013.065,1.03a1.168,1.168,0,0,0,.054.326.217.217,0,0,0,.131.132.891.891,0,0,0,.29.028l.008.12q-.344.005-.961.047c-.372.026-.647.05-.824.073l-.007-.12a.865.865,0,0,0,.284-.067.216.216,0,0,0,.114-.148,1.17,1.17,0,0,0,.013-.33l-.151-2.372a1.151,1.151,0,0,0-.054-.328.213.213,0,0,0-.132-.131.943.943,0,0,0-.289-.025l-.007-.121c.179,0,.442-.011.788-.035q.112-.007.672-.054l.265-.021a2.294,2.294,0,0,1,1.2.163.755.755,0,0,1,.431.648.844.844,0,0,1-.1.449,1.045,1.045,0,0,1-.406.392,2.315,2.315,0,0,1-.791.259l.174.008a1.76,1.76,0,0,1,.68.148.681.681,0,0,1,.349.432l.157.527a.638.638,0,0,0,.113.235.19.19,0,0,0,.154.058.37.37,0,0,0,.245-.149l.088.073A.96.96,0,0,1,665.468,112.712Zm-2.256-3.342a.235.235,0,0,0-.078.156,1.522,1.522,0,0,0,0,.324l.077,1.222.253-.017a.846.846,0,0,0,.461-.143.565.565,0,0,0,.21-.316,1.494,1.494,0,0,0,.033-.463,1.067,1.067,0,0,0-.205-.639.633.633,0,0,0-.557-.18A.352.352,0,0,0,663.212,109.369Z" transform="translate(-624.964 -109.048)" fill="#5f3813"/>
        <path id="Caminho_83" data-name="Caminho 83" d="M676.064,108.926a.212.212,0,0,0-.12.139,1.162,1.162,0,0,0-.032.33l.012,2.378a1.16,1.16,0,0,0,.035.328.214.214,0,0,0,.122.14.883.883,0,0,0,.288.046v.12q-.3-.016-.876-.012c-.415,0-.719.009-.912.022v-.12a.889.889,0,0,0,.287-.048.219.219,0,0,0,.121-.141,1.205,1.205,0,0,0,.032-.329l-.011-2.377a1.156,1.156,0,0,0-.035-.328.218.218,0,0,0-.124-.14.913.913,0,0,0-.288-.045v-.12c.192.01.5.014.912.012.38,0,.672-.009.876-.022v.12A.887.887,0,0,0,676.064,108.926Z" transform="translate(-633.709 -108.757)" fill="#5f3813"/>
        <path id="Caminho_84" data-name="Caminho 84" d="M684.3,112.674l-.007.12c-.184-.023-.441-.047-.772-.069-.42-.027-.729-.042-.929-.044l.007-.12a.69.69,0,0,0,.293-.041.175.175,0,0,0,.1-.162.722.722,0,0,0-.06-.28l-.251-.7-1.236-.082-.079.156a1.662,1.662,0,0,0-.205.606.344.344,0,0,0,.111.308.739.739,0,0,0,.375.132l-.007.12c-.224-.027-.448-.047-.675-.062q-.313-.021-.478-.015l.007-.12a.451.451,0,0,0,.276-.163,2.153,2.153,0,0,0,.282-.446L682.48,109c.061.008.106.013.134.015s.078,0,.136,0l1.2,3.244C684.052,112.523,684.167,112.659,684.3,112.674Zm-2.143-2.771-.651,1.276,1.133.075Z" transform="translate(-637.753 -108.926)" fill="#5f3813"/>
        <path id="Caminho_85" data-name="Caminho 85" d="M699.429,114.216a1.031,1.031,0,0,1,.346.952,1,1,0,0,1-.634.774.954.954,0,0,1-.514.045.973.973,0,0,1-.469-.22,1.013,1.013,0,0,1-.294-.424,1,1,0,0,1-.047-.523.984.984,0,0,1,.214-.478.972.972,0,0,1,.415-.3.955.955,0,0,1,.514-.048A.974.974,0,0,1,699.429,114.216Z" transform="translate(-649.567 -112.32)" fill="#5f3813"/>
        <path id="Caminho_86" data-name="Caminho 86" d="M710.546,114.99a.9.9,0,0,0-.048.351.264.264,0,0,0,.129.193,1.632,1.632,0,0,0,.378.158l-.036.126c-.307-.105-.648-.215-1.028-.328-.27-.082-.571-.166-.9-.254l.033-.116a.875.875,0,0,0,.287.038.209.209,0,0,0,.155-.1,1.16,1.16,0,0,0,.12-.306l.811-2.858a1.164,1.164,0,0,0,.057-.325.223.223,0,0,0-.079-.171.891.891,0,0,0-.261-.128l.032-.116q.283.1.856.276c.069.022.283.082.639.184l.255.074a2.467,2.467,0,0,1,.826.4,1.209,1.209,0,0,1,.413.557,1.073,1.073,0,0,1,.007.649,1.3,1.3,0,0,1-.329.562,1.22,1.22,0,0,1-.671.324,2.284,2.284,0,0,1-1.058-.109l-.3-.09Zm1.058-3.239a.224.224,0,0,0-.142.114,1.319,1.319,0,0,0-.115.3l-.483,1.7.244.073a.689.689,0,0,0,.721-.107,1.645,1.645,0,0,0,.4-.759,1.685,1.685,0,0,0,.072-.874.624.624,0,0,0-.465-.427A.486.486,0,0,0,711.6,111.75Z" transform="translate(-657.235 -110.393)" fill="#5f3813"/>
        <path id="Caminho_87" data-name="Caminho 87" d="M721.737,122.014l-.043.112q-.252-.119-.718-.3-.589-.233-.874-.328l.042-.112a.709.709,0,0,0,.291.051.171.171,0,0,0,.145-.123.7.7,0,0,0,.023-.287l-.037-.745-1.157-.458-.12.125a1.637,1.637,0,0,0-.371.516.346.346,0,0,0,.018.328.747.747,0,0,0,.32.241l-.041.113q-.31-.141-.626-.266c-.2-.078-.346-.131-.452-.161l.042-.112a.433.433,0,0,0,.309-.071,2.145,2.145,0,0,0,.4-.34l2.168-2.243c.056.026.1.045.124.055s.073.027.129.045l.214,3.466Q721.55,121.932,721.737,122.014Zm-1.248-3.3-.989,1.018,1.06.42Z" transform="translate(-663.443 -115.032)" fill="#5f3813"/>
        <path id="Caminho_88" data-name="Caminho 88" d="M733.848,122.832a1.688,1.688,0,0,1-.118,1.422,1.832,1.832,0,0,1-.652.767,1.6,1.6,0,0,1-.933.247,2.582,2.582,0,0,1-1.116-.32c-.093-.048-.206-.111-.341-.187l-.482-.261q-.479-.249-.726-.357l.052-.107a.91.91,0,0,0,.278.091.209.209,0,0,0,.171-.069,1.133,1.133,0,0,0,.173-.278l1.035-2.123a1.163,1.163,0,0,0,.115-.311.219.219,0,0,0-.049-.182.964.964,0,0,0-.238-.174l.053-.107q.3.177.552.31l.145.072.25.123q.462.227.65.325A2.362,2.362,0,0,1,733.848,122.832Zm-1.523-1.128a.214.214,0,0,0-.158.084,1.294,1.294,0,0,0-.167.276l-1.046,2.144a1.309,1.309,0,0,0-.115.3.235.235,0,0,0,.029.183.543.543,0,0,0,.193.147,1.152,1.152,0,0,0,.724.156,1.007,1.007,0,0,0,.578-.344,3.591,3.591,0,0,0,.518-.817,3.281,3.281,0,0,0,.312-.9,1.057,1.057,0,0,0-.094-.669,1.246,1.246,0,0,0-.547-.491A.475.475,0,0,0,732.324,121.7Z" transform="translate(-671.183 -117.031)" fill="#5f3813"/>
        <path id="Caminho_89" data-name="Caminho 89" d="M743.173,133.957l-.062.1c-.15-.111-.365-.258-.646-.441q-.534-.348-.8-.5l.062-.1a.7.7,0,0,0,.276.109.171.171,0,0,0,.167-.091.717.717,0,0,0,.076-.276l.1-.739-1.047-.682-.142.1a1.608,1.608,0,0,0-.461.431.345.345,0,0,0-.046.326.773.773,0,0,0,.269.3l-.062.1c-.184-.134-.372-.263-.563-.387s-.315-.2-.414-.249l.061-.1a.442.442,0,0,0,.318-.007,2.121,2.121,0,0,0,.454-.253l2.552-1.762c.05.037.087.064.112.08s.066.041.117.069l-.446,3.443C743.024,133.7,743.062,133.879,743.173,133.957Zm-.6-3.492-1.162.8.96.625Z" transform="translate(-678.287 -123.141)" fill="#5f3813"/>
        <path id="Caminho_90" data-name="Caminho 90" d="M752.906,139.282a1.036,1.036,0,0,1-.4-.214.9.9,0,0,1-.33-.435.625.625,0,0,1,.024-.432l.288-.664a1.082,1.082,0,0,0,.112-.352.414.414,0,0,0-.047-.247.812.812,0,0,0-.2-.213l-.155-.125-.615.814a1.123,1.123,0,0,0-.169.279.223.223,0,0,0,.011.189.963.963,0,0,0,.2.22l-.072.095q-.26-.232-.747-.626-.44-.355-.663-.511l.071-.094a.909.909,0,0,0,.255.145.2.2,0,0,0,.181-.033,1.108,1.108,0,0,0,.222-.238l1.419-1.874a1.152,1.152,0,0,0,.171-.282.221.221,0,0,0-.014-.187.977.977,0,0,0-.2-.219l.071-.095c.135.122.338.294.612.515q.089.072.536.422l.21.166a2.417,2.417,0,0,1,.79.945.776.776,0,0,1-.1.779.8.8,0,0,1-.363.269.979.979,0,0,1-.555.013,2.275,2.275,0,0,1-.757-.349l.124.125a1.845,1.845,0,0,1,.413.578.705.705,0,0,1-.018.562l-.223.5a.619.619,0,0,0-.066.253.2.2,0,0,0,.077.15.364.364,0,0,0,.279.056l.017.116A.931.931,0,0,1,752.906,139.282Zm.472-4.044a.22.22,0,0,0-.158.063,1.525,1.525,0,0,0-.212.239l-.731.966.2.16a.852.852,0,0,0,.435.21.528.528,0,0,0,.362-.092,1.443,1.443,0,0,0,.324-.323,1.066,1.066,0,0,0,.259-.617.675.675,0,0,0-.3-.517A.347.347,0,0,0,753.378,135.238Z" transform="translate(-685.289 -126.109)" fill="#5f3813"/>
        <path id="Caminho_91" data-name="Caminho 91" d="M762.981,143.784a.207.207,0,0,0-.18.017,1.118,1.118,0,0,0-.241.219L761,145.766a1.162,1.162,0,0,0-.192.265.228.228,0,0,0,0,.189.946.946,0,0,0,.18.236l-.078.089q-.214-.227-.632-.628-.457-.435-.682-.626l.079-.088a.916.916,0,0,0,.243.167.208.208,0,0,0,.183-.017,1.114,1.114,0,0,0,.239-.218l1.564-1.746a1.11,1.11,0,0,0,.192-.264.223.223,0,0,0,0-.189.944.944,0,0,0-.18-.236l.079-.088q.2.214.66.652.418.4.654.6l-.079.088A.906.906,0,0,0,762.981,143.784Z" transform="translate(-691.731 -131.859)" fill="#5f3813"/>
        <path id="Caminho_92" data-name="Caminho 92" d="M766.621,155.421l-.086.082q-.174-.223-.511-.6-.426-.48-.642-.7l.086-.081a.72.72,0,0,0,.239.179.165.165,0,0,0,.184-.043.685.685,0,0,0,.144-.245l.288-.686-.838-.942-.161.057a1.56,1.56,0,0,0-.555.292.343.343,0,0,0-.127.3.78.78,0,0,0,.184.364l-.086.081c-.143-.178-.292-.353-.445-.526s-.254-.276-.336-.351l.086-.082a.437.437,0,0,0,.307.079,2.03,2.03,0,0,0,.5-.12l2.911-1.011c.038.049.068.085.087.107s.054.057.1.1l-1.3,3.2C766.542,155.134,766.534,155.315,766.621,155.421Zm.31-3.531-1.325.456.768.864Z" transform="translate(-694.712 -137.905)" fill="#5f3813"/>
        <path id="Caminho_93" data-name="Caminho 93" d="M779.5,165.36a1.044,1.044,0,0,1-.083.519.975.975,0,0,1-.324.407.93.93,0,0,1-.479.179.946.946,0,0,1-.5-.095.993.993,0,0,1-.4-.344,1.043,1.043,0,0,1-.1-1.013.96.96,0,0,1,.324-.4.941.941,0,0,1,.479-.182.96.96,0,0,1,.5.091.977.977,0,0,1,.4.342A1.034,1.034,0,0,1,779.5,165.36Z" transform="translate(-703.974 -146.745)" fill="#5f3813"/>
        <path id="Caminho_94" data-name="Caminho 94" d="M782.818,175.125a.892.892,0,0,0-.279.2.281.281,0,0,0-.047.229,1.774,1.774,0,0,0,.15.391l-.114.061q-.206-.453-.476-.995-.193-.388-.444-.851l.1-.055a.942.942,0,0,0,.172.242.2.2,0,0,0,.176.046,1.035,1.035,0,0,0,.3-.119l2.567-1.362a1.123,1.123,0,0,0,.268-.18.231.231,0,0,0,.065-.177.967.967,0,0,0-.09-.283l.1-.055q.121.283.394.831.05.1.311.6l.124.241a2.617,2.617,0,0,1,.285.9,1.245,1.245,0,0,1-.107.693,1.027,1.027,0,0,1-.451.453,1.158,1.158,0,0,1-1.312-.138,2.415,2.415,0,0,1-.651-.866l-.144-.289Zm3.005-1.44a.222.222,0,0,0-.179-.028,1.269,1.269,0,0,0-.29.121l-1.531.813.115.232a.715.715,0,0,0,.573.466,1.542,1.542,0,0,0,.812-.22,1.607,1.607,0,0,0,.663-.549.653.653,0,0,0-.02-.641A.527.527,0,0,0,785.824,173.684Z" transform="translate(-706.757 -152.065)" fill="#5f3813"/>
        <path id="Caminho_95" data-name="Caminho 95" d="M790.468,186.249a.211.211,0,0,0-.17-.064,1.1,1.1,0,0,0-.309.092l-2.135.892a1.054,1.054,0,0,0-.282.155.219.219,0,0,0-.081.169.99.99,0,0,0,.066.293l-.108.045c-.066-.2-.171-.481-.313-.844q-.233-.6-.358-.867l.108-.045a.958.958,0,0,0,.151.259.211.211,0,0,0,.172.064,1.1,1.1,0,0,0,.307-.091l2.135-.891a1.116,1.116,0,0,0,.283-.155.218.218,0,0,0,.08-.17.949.949,0,0,0-.065-.293l.108-.045q.092.282.327.88.213.546.344.832l-.108.045A.959.959,0,0,0,790.468,186.249Z" transform="translate(-710.285 -160.616)" fill="#5f3813"/>
        <path id="Caminho_96" data-name="Caminho 96" d="M789.782,194.26l.184.617a1.14,1.14,0,0,0,.264.485.867.867,0,0,0,.461.238,2.172,2.172,0,0,0,.725,0l.039.134c-.144.032-.32.083-.528.148s-.456.159-.722.272q-.1-.406-.391-1.378c-.2-.669-.349-1.154-.451-1.456l.111-.035,3.684.833-.181-.611a1.143,1.143,0,0,0-.252-.469.834.834,0,0,0-.438-.234,2.018,2.018,0,0,0-.683-.01l-.04-.134q.182-.038.494-.138a7.281,7.281,0,0,0,.689-.261q.113.44.419,1.466c.18.61.318,1.053.412,1.328l-.111.035Z" transform="translate(-712.049 -165.742)" fill="#5f3813"/>
        <path id="Caminho_97" data-name="Caminho 97" d="M792.672,205.413l.118.633a1.179,1.179,0,0,0,.214.512.88.88,0,0,0,.435.287,2.258,2.258,0,0,0,.721.082l.026.136q-.221.026-.54.09t-.747.192q-.059-.416-.247-1.413c-.13-.688-.228-1.186-.3-1.5l.115-.023,3.578,1.231-.118-.628a1.15,1.15,0,0,0-.2-.494.84.84,0,0,0-.411-.281,2.014,2.014,0,0,0-.678-.084l-.026-.137q.185-.02.5-.084a7.175,7.175,0,0,0,.713-.184q.067.449.264,1.5.178.94.275,1.366l-.115.023Z" transform="translate(-714.088 -173.582)" fill="#5f3813"/>
        <path id="Caminho_98" data-name="Caminho 98" d="M794.59,219.228l-.116.012c-.007-.191-.026-.457-.058-.8q-.062-.648-.109-.954l.116-.011a.75.75,0,0,0,.086.292.17.17,0,0,0,.172.08.657.657,0,0,0,.258-.107l.629-.369-.12-1.273-.163-.055a1.539,1.539,0,0,0-.613-.112.327.327,0,0,0-.277.163.8.8,0,0,0-.065.4l-.116.012q-.016-.349-.05-.7a4.761,4.761,0,0,0-.064-.489l.116-.012a.464.464,0,0,0,.2.255,2.049,2.049,0,0,0,.473.215l2.914,1c0,.064,0,.111.007.14s.009.08.019.139l-2.907,1.749Q794.578,219.02,794.59,219.228Zm2.3-2.629-1.324-.458.111,1.166Z" transform="translate(-715.282 -181.471)" fill="#5f3813"/>
        <path id="Caminho_99" data-name="Caminho 99" d="M794.624,231.473a1.113,1.113,0,0,1-.067-.457.937.937,0,0,1,.148-.531.584.584,0,0,1,.353-.233l.69-.15a1.007,1.007,0,0,0,.341-.112.391.391,0,0,0,.166-.185.837.837,0,0,0,.053-.29l.007-.2-1-.037a1.072,1.072,0,0,0-.318.022.215.215,0,0,0-.141.121.979.979,0,0,0-.055.3l-.117,0q.029-.353.052-.992.02-.577.012-.853l.116,0a1,1,0,0,0,.036.3.212.212,0,0,0,.132.131,1.063,1.063,0,0,0,.316.046l2.3.086a1.1,1.1,0,0,0,.323-.023.209.209,0,0,0,.139-.122,1,1,0,0,0,.054-.295l.117,0c-.018.183-.033.455-.046.813,0,.077-.007.31-.015.7l-.006.273a2.483,2.483,0,0,1-.279,1.214.723.723,0,0,1-.667.379.783.783,0,0,1-.424-.145,1.045,1.045,0,0,1-.336-.455,2.469,2.469,0,0,1-.17-.837c-.01.072-.018.132-.026.177a1.891,1.891,0,0,1-.212.684.661.661,0,0,1-.451.315l-.524.109a.566.566,0,0,0-.237.092.2.2,0,0,0-.073.152.389.389,0,0,0,.119.267l-.08.082A.951.951,0,0,1,794.624,231.473Zm3.448-1.979a.227.227,0,0,0-.143-.1,1.45,1.45,0,0,0-.311-.036l-1.186-.044-.01.261a.911.911,0,0,0,.092.487.542.542,0,0,0,.283.249,1.375,1.375,0,0,0,.444.08.99.99,0,0,0,.636-.146.68.68,0,0,0,.229-.554A.371.371,0,0,0,798.072,229.494Z" transform="translate(-715.592 -190.038)" fill="#5f3813"/>
        <path id="Caminho_100" data-name="Caminho 100" d="M797.208,242.274a.219.219,0,0,0-.119-.142,1.034,1.034,0,0,0-.312-.077l-2.284-.31a1.094,1.094,0,0,0-.319-.009.215.215,0,0,0-.151.107.939.939,0,0,0-.082.289l-.116-.016q.058-.311.13-.894.082-.637.1-.938l.115.016a.989.989,0,0,0,.007.3.217.217,0,0,0,.12.144,1.066,1.066,0,0,0,.311.077l2.284.309a1.1,1.1,0,0,0,.32.01.211.211,0,0,0,.15-.108.929.929,0,0,0,.083-.289l.115.016c-.035.2-.081.506-.135.933q-.075.583-.1.9l-.116-.015A.975.975,0,0,0,797.208,242.274Z" transform="translate(-715.093 -198.512)" fill="#5f3813"/>
        <path id="Caminho_101" data-name="Caminho 101" d="M791.42,250.084l-.114-.026c.052-.184.114-.441.187-.776.092-.423.155-.737.189-.941l.113.027a.745.745,0,0,0-.008.3.173.173,0,0,0,.139.131.649.649,0,0,0,.278-.017l.71-.146.272-1.247-.137-.105a1.555,1.555,0,0,0-.548-.3.321.321,0,0,0-.312.064.781.781,0,0,0-.185.362l-.113-.027q.09-.336.165-.677c.047-.211.076-.373.089-.486l.113.027a.478.478,0,0,0,.112.306,2.159,2.159,0,0,0,.384.357l2.463,1.893c-.016.061-.029.106-.035.136s-.016.078-.024.137l-3.292.718Q791.472,249.884,791.42,250.084Zm2.986-1.749-1.119-.864-.249,1.143Z" transform="translate(-713.375 -202.562)" fill="#5f3813"/>
      </g>
    </g>
    <g id="Grupo_404" data-name="Grupo 404" transform="translate(559.867 171.842)">
      <path id="Caminho_102" data-name="Caminho 102" d="M594.084,316.387q-.48-.465-1.666-1.519-1.722-1.529-2.6-2.267l.131-.147a1.372,1.372,0,0,0,.395.247.343.343,0,0,0,.3-.045,2.024,2.024,0,0,0,.4-.369l3.243-3.652a1.956,1.956,0,0,0,.319-.438.352.352,0,0,0,.007-.3,1.358,1.358,0,0,0-.288-.359l.13-.148q.837.782,2.559,2.31,1.081.961,1.557,1.345-.663.645-1.148,1.192a6.553,6.553,0,0,0-.451.551l-.169-.15a2.979,2.979,0,0,0,.6-1.664,1.557,1.557,0,0,0-.535-1.14l-.1-.086a1.261,1.261,0,0,0-.32-.226.267.267,0,0,0-.237.017,1.305,1.305,0,0,0-.3.273l-1.673,1.883.076.068a1.077,1.077,0,0,0,.6.272,1.647,1.647,0,0,0,.675-.062,1.866,1.866,0,0,0,.586-.29l.169.151q-.412.405-.664.689l-.29.334q-.282.316-.882,1.087l-.17-.151a1.811,1.811,0,0,0,.257-.662,1.393,1.393,0,0,0-.044-.663,1.256,1.256,0,0,0-.372-.559l-.076-.068-1.7,1.916a1.275,1.275,0,0,0-.237.336.264.264,0,0,0,.013.236,1.224,1.224,0,0,0,.262.291l.245.217a1.34,1.34,0,0,0,.683.3,2.062,2.062,0,0,0,.986-.125,4.286,4.286,0,0,0,1.234-.72l.169.15q-.254.243-.622.656A16.453,16.453,0,0,0,594.084,316.387Z" transform="translate(-589.821 -307.389)" fill="#5f3813"/>
      <path id="Caminho_103" data-name="Caminho 103" d="M620.315,327.085a6.8,6.8,0,0,0-.308.643l-.2-.105a3.329,3.329,0,0,0,.124-1.789,1.484,1.484,0,0,0-.727-.949l-.115-.061a1.269,1.269,0,0,0-.365-.143.267.267,0,0,0-.226.073,1.291,1.291,0,0,0-.23.338l-1.177,2.227.09.048a1.077,1.077,0,0,0,.651.121,1.652,1.652,0,0,0,.641-.222,1.86,1.86,0,0,0,.5-.42l.2.105q-.3.492-.481.828l-.2.393q-.2.374-.6,1.266l-.2-.106a1.829,1.829,0,0,0,.092-.7,1.393,1.393,0,0,0-.2-.634,1.261,1.261,0,0,0-.494-.454l-.089-.047-1.058,2a1.6,1.6,0,0,0-.208.573.45.45,0,0,0,.154.367,2.874,2.874,0,0,0,.594.384l-.105.2c-.057-.03-.1-.055-.13-.074q-.988-.549-1.651-.9-.4-.214-1.143-.583l-.43-.216.092-.174a1.4,1.4,0,0,0,.442.147.346.346,0,0,0,.278-.114,2.086,2.086,0,0,0,.3-.453l2.282-4.319a1.972,1.972,0,0,0,.2-.5.35.35,0,0,0-.064-.3,1.368,1.368,0,0,0-.366-.28l.093-.174q1,.559,3.034,1.636,1.28.676,1.833.935Q620.656,326.44,620.315,327.085Z" transform="translate(-605.655 -318.099)" fill="#5f3813"/>
      <path id="Caminho_104" data-name="Caminho 104" d="M644.321,341.494q-.642-.19-2.18-.575-2.234-.56-3.351-.81l.048-.191a1.372,1.372,0,0,0,.465.037.342.342,0,0,0,.242-.177,2.049,2.049,0,0,0,.18-.51l1.187-4.738a1.939,1.939,0,0,0,.079-.535.354.354,0,0,0-.133-.272,1.363,1.363,0,0,0-.422-.185l.048-.192q1.1.306,3.337.866,1.4.352,2,.472-.29.879-.467,1.587a6.708,6.708,0,0,0-.145.7l-.219-.055a2.971,2.971,0,0,0-.238-1.752,1.558,1.558,0,0,0-1-.763l-.126-.031a1.242,1.242,0,0,0-.388-.052.268.268,0,0,0-.2.125,1.319,1.319,0,0,0-.143.383l-.612,2.444.1.025a1.08,1.08,0,0,0,.661-.038,1.647,1.647,0,0,0,.57-.367,1.867,1.867,0,0,0,.385-.528l.219.055c-.118.367-.208.673-.269.919l-.1.431q-.1.41-.28,1.371l-.219-.055a1.825,1.825,0,0,0-.079-.706,1.391,1.391,0,0,0-.346-.568,1.253,1.253,0,0,0-.588-.322l-.1-.025-.623,2.485a1.283,1.283,0,0,0-.054.408.262.262,0,0,0,.119.2,1.25,1.25,0,0,0,.368.138l.317.079a1.341,1.341,0,0,0,.748-.046,2.058,2.058,0,0,0,.816-.566,4.317,4.317,0,0,0,.762-1.21l.219.055c-.075.222-.158.512-.247.869Q644.413,340.848,644.321,341.494Z" transform="translate(-623.238 -325.103)" fill="#5f3813"/>
      <path id="Caminho_105" data-name="Caminho 105" d="M670.76,338.706a.344.344,0,0,0-.2.224,2.108,2.108,0,0,0-.07.536l-.178,4.881a1.972,1.972,0,0,0,.033.54.353.353,0,0,0,.186.238,1.37,1.37,0,0,0,.451.093l-.007.2q-.575-.05-1.642-.089-1.191-.043-1.754-.035l.007-.2a1.4,1.4,0,0,0,.461-.06.347.347,0,0,0,.2-.224,2.054,2.054,0,0,0,.07-.536l.179-4.881a1.975,1.975,0,0,0-.033-.541.354.354,0,0,0-.186-.238,1.373,1.373,0,0,0-.451-.093l.007-.2q.561.05,1.753.093,1.066.039,1.643.031l-.007.2A1.376,1.376,0,0,0,670.76,338.706Z" transform="translate(-642.883 -328.5)" fill="#5f3813"/>
      <path id="Caminho_106" data-name="Caminho 106" d="M691.877,337.126a6.672,6.672,0,0,0,.154.69l-.222.04a4.413,4.413,0,0,0-1.153-1.684,1.478,1.478,0,0,0-1.187-.365l-.01,0,1,5.544a1.566,1.566,0,0,0,.19.577.446.446,0,0,0,.345.192,2.825,2.825,0,0,0,.7-.063l.035.194a.985.985,0,0,1-.114.016q-1.188.19-2.015.34-.729.131-1.836.357c-.037.01-.088.02-.151.031l-.035-.194a2.86,2.86,0,0,0,.68-.186.445.445,0,0,0,.256-.3,1.572,1.572,0,0,0-.024-.606l-1-5.544h-.01a1.485,1.485,0,0,0-.989.753,4.454,4.454,0,0,0-.489,1.986l-.222.04a6.572,6.572,0,0,0-.1-.7q-.153-.847-.414-1.909.928-.138,3.175-.544t3.151-.6Q691.724,336.279,691.877,337.126Z" transform="translate(-654.957 -326.363)" fill="#5f3813"/>
      <path id="Caminho_107" data-name="Caminho 107" d="M718.6,326.45a3.048,3.048,0,0,1,1.707.528,4.175,4.175,0,0,1,1.685,3.449,3.3,3.3,0,0,1-.61,1.747,3.964,3.964,0,0,1-1.525,1.266,4.277,4.277,0,0,1-1.938.483,3.052,3.052,0,0,1-1.707-.528,3.794,3.794,0,0,1-1.261-1.515,3.838,3.838,0,0,1-.425-1.934,3.31,3.31,0,0,1,.608-1.747,3.956,3.956,0,0,1,1.527-1.266A4.27,4.27,0,0,1,718.6,326.45Zm-2.463,1.43a3.1,3.1,0,0,0,.035,1.349,7.36,7.36,0,0,0,.617,1.7,6.486,6.486,0,0,0,1,1.514,3.008,3.008,0,0,0,1.08.811,1.133,1.133,0,0,0,.946.006,1.084,1.084,0,0,0,.569-.77,3.092,3.092,0,0,0-.035-1.349,7.32,7.32,0,0,0-.617-1.7,6.52,6.52,0,0,0-1-1.516,3.031,3.031,0,0,0-1.08-.81,1.132,1.132,0,0,0-.946-.006A1.084,1.084,0,0,0,716.139,327.879Z" transform="translate(-674.918 -320.396)" fill="#5f3813"/>
      <path id="Caminho_108" data-name="Caminho 108" d="M741.487,309.691a3.36,3.36,0,0,1,.7-.232c.1-.023.179-.042.226-.056a.3.3,0,0,0,.117-.063.152.152,0,0,0,.036-.17,1.2,1.2,0,0,0-.16-.3l.17-.15q.431.561,1.555,1.833l-.169.15a3.309,3.309,0,0,0-.905-.637,2.231,2.231,0,0,0-1-.234,1.288,1.288,0,0,0-.861.332,1.073,1.073,0,0,0-.385.661.841.841,0,0,0,.237.689,1.1,1.1,0,0,0,.492.335,1.817,1.817,0,0,0,.639.07c.245-.011.625-.048,1.14-.109l.281-.03a9.6,9.6,0,0,1,1.089-.074,2.377,2.377,0,0,1,.838.154,1.859,1.859,0,0,1,.742.531,1.645,1.645,0,0,1,.445,1.047,2.147,2.147,0,0,1-.289,1.131,3.984,3.984,0,0,1-.869,1.057,4.233,4.233,0,0,1-.816.589,3.8,3.8,0,0,1-.733.293.735.735,0,0,0-.341.115.15.15,0,0,0-.037.168,1.232,1.232,0,0,0,.158.3l-.169.149q-.465-.59-1.859-2.168l.17-.15a4.222,4.222,0,0,0,1.621,1.1,1.405,1.405,0,0,0,1.46-.315,1.348,1.348,0,0,0,.48-.764.858.858,0,0,0-.231-.74,1.4,1.4,0,0,0-.594-.407,2.138,2.138,0,0,0-.731-.111,8.143,8.143,0,0,0-.977.084,11.169,11.169,0,0,1-1.166.107,2.6,2.6,0,0,1-.886-.131,1.761,1.761,0,0,1-.769-.524,1.611,1.611,0,0,1-.435-1,1.954,1.954,0,0,1,.252-1.054,3.549,3.549,0,0,1,.778-.958A3.276,3.276,0,0,1,741.487,309.691Z" transform="translate(-692.097 -308.299)" fill="#5f3813"/>
    </g>
  </g>
</svg>
